<svg viewBox="0 0 1259.21 1493.78" xmlns="http://www.w3.org/2000/svg" id="图层_1"><defs><style>.cls-1{fill:#1f364e}.cls-2{fill:#f7c2bb}.cls-3{fill:#f9fbf9}.cls-4{fill:#e95578}.cls-5{fill:#f3a29c}</style></defs><path transform="translate(-113.8)" d="M964.18 37.69c45.17 13.8 83.75 29.44 105.84 71.63 21.72 41.51 15.82 93.84-4.92 135.85a4.92 4.92 0 0 0 0 4.06c38.36 86 39.62 193.32 22.67 285.32q-30.36 17.31-42.91 52.29-13.86 38.6-22 90.33c-2.48 16-7.12 31.23-15.1 45.39-3 5.31-4.64 4.91-4.91-1.18-.36-9.24-.63-19.6.41-28.93 10.63-95.7 6.17-190.4-.91-286.41a346.42 346.42 0 0 0-5.86-44.22c-7.79-37.5-40.43-81-80.36-89.6q-107.45-23.06-232.45-50.94a27.72 27.72 0 0 0-13.48.05 184.14 184.14 0 0 0-71.76 37.59c-68.69 58.24-91.68 152.13-93.25 240.08q-1.62 90.39 11.22 234.79c.05.23 0 .32-.27.36l-1.13.18c-.18 0-.27 0-.31-.22q-9-42.4-18.57-97.05a340.88 340.88 0 0 0-17.45-64.37c-8.11-20.91-15.37-34.34-37.18-39.3-2-.5-3.2-2.08-3.61-4.82a4.72 4.72 0 0 0 1.35-2 4 4 0 0 0 .32-2.16 727.56 727.56 0 0 1 6.17-220.73c.32-1.67-.4-2.48-2.07-2.48l-62 .13c-2.84 0-4.1-1.44-3.74-4.28 8.56-64 52.28-120.35 121.25-119.94 4.87 0 9.64 0 14.38-.05 5.49 0 5.63-.9.4-2.66q-38.07-12.63-65.09.19-16.83 8-2.43-3.79c25-20.37 63.24-13.25 88.39 5.27q2.91 2.18 3.38-1.39c8.32-63.83 47.26-115.26 103.8-145.51 45.16-25.06 96.64-20.55 144.64-7.34a10.5 10.5 0 0 0 11.68-3.61Q816.22-3.21 844 .55a238.28 238.28 0 0 1 54 14.07q33.09 12.77 66.18 23.07Z" class="cls-1"/><path transform="translate(-113.8)" d="M1087.73 534.55q38.4-.94 45.48 29.34c1.58 6.81 1.53 18.62-.23 35.43q-2.43 23.73-16.9 62.3c-16.22 43.36-46.92 90.28-95.87 92.8a4 4 0 0 0-3.83 3.43c-9.92 61.15-36.78 118.09-79.65 161.95-4.6 4.74-8.7 9.29-12.26 13.75-43.63 35.74-88.35 61.35-146 65.31q-79.71 5.48-145.28-38.49-9.06-6.09-40.16-33.54-55.25-58.83-77.43-138.6a141.77 141.77 0 0 1-4.73-28.08 3.28 3.28 0 0 0-3.16-3.07q-21.49-.54-39.62-17.44c-36.92-34.44-52.69-84.83-61-135.09Q401.51 571 405.44 557c5.68-20.28 18.25-20.24 32.45-28.48.41 2.74 1.58 4.32 3.61 4.82 21.81 5 29.07 18.39 37.18 39.3a340.88 340.88 0 0 1 17.45 64.37q9.6 54.63 18.57 97.05c0 .18.13.27.31.22l1.13-.18c.23 0 .32-.13.27-.36Q503.57 589.36 505.19 499c1.57-87.94 24.56-181.83 93.21-240.07a184.14 184.14 0 0 1 71.76-37.59 27.72 27.72 0 0 1 13.48-.05q125 27.85 232.45 50.94c39.93 8.56 72.57 52.1 80.36 89.6a346.42 346.42 0 0 1 5.86 44.22c7.08 96 11.54 190.71.91 286.41-1 9.33-.77 19.69-.41 28.93.27 6.09 1.89 6.49 4.91 1.18 8-14.16 12.62-29.39 15.1-45.39q8.11-51.74 22-90.33 12.51-34.97 42.91-52.3Zm-408.42-72.12C645 448.68 575 450.35 550.22 479.56a5.89 5.89 0 0 0-1.49 5.05 4.53 4.53 0 0 0 5.41 3.74c43.45-9.38 81.45-10.68 125.67 3.6q13.46 4.4 13.65-9.87a18.5 18.5 0 0 0-.76-5.18 22.11 22.11 0 0 0-13.39-14.47Zm288.61 22.18c-8.47-12.13-34.48-16.14-48-17.49a260.38 260.38 0 0 0-77.35 3.6 17.5 17.5 0 0 0-8.38 4.33c-5.59 5.23-8.07 11-7.44 17.36.72 7.43 4.69 10.09 11.85 8q69.17-20.75 123.55-7.34c9.33 2.27 11.23-.57 5.77-8.46Zm-384 85.23c11.54 7.53 23.71 16.59 36.42 19.88q35.37 9.19 54.59-23.35a5.9 5.9 0 0 1 3.11-2.57c1.8-.67 2.79-2.11 3-4.37 3.11-1.94 2-5.18-3.33-9.82-30.47-26.42-75.77-22.32-106.87.72a3.2 3.2 0 0 0-1.27 3.69q3.03 10.98 14.36 15.82Zm250.84-1.39.27 2a4.15 4.15 0 0 0 1.44 2.66 104.12 104.12 0 0 0 40.62 20.15c13.56 3.51 31.91-.54 40.52-10.91 6.81-8.16 12.17-13.34 16.18-15.46 7 2.21 12.58-.68 16.63-8.57a2.37 2.37 0 0 0-1-3.51C913 533.29 856.23 520 832.47 566.24a1.7 1.7 0 0 0 .95 2.39 1.16 1.16 0 0 0 1.35-.18Zm-381.27 52.33 20.19 19a.43.43 0 0 0 .68 0l1.12-1.08a2 2 0 0 0 .23-3q-17.11-21.11-33.85-42.6-9.27-11.9-16.23-30.33a2.29 2.29 0 0 0-2.75-1.4l-1.08.27a1.15 1.15 0 0 0-.95 1.44q3.52 23.26 21.1 42.1a8.71 8.71 0 0 1 1.21 10.28 47.36 47.36 0 0 0-6.08 26.19c.27 5.27 1.53 5.5 3.74.72l9.69-21q1.08-2.37 2.98-.59Zm239.12 90.51q-5 5.54 2.7 9.73c14.24 7.76 30 17.49 44.94 20.56q32.06 6.62 65.45-16.58c5.86-4.06 9-10.51 9.28-19.39a530.77 530.77 0 0 0-20.59-81 372.35 372.35 0 0 0-19.07-46.11c-5-10.23-12.94-15-23.8-14.43-12.17.64-20.37 10.06-24.43 20.65a645.73 645.73 0 0 0-34.48 126.57Zm395.3-83.53 7 9.65a2.94 2.94 0 0 0 4.46.81l1-.58a.72.72 0 0 0 .27-.91c-3.74-9-5.95-16.94-6.54-23.84a5.52 5.52 0 0 1 1.49-4.24l19.38-20.37a7.46 7.46 0 0 0 1.94-7.66l-3.61-13.21a3.23 3.23 0 0 0-5-1.76c-23.85 16.77-42 47.47-57.2 73.74a11.66 11.66 0 0 0-1.71 5.68 2.72 2.72 0 0 0 4.37 2.26l27.13-20.6a5 5 0 0 1 7.02 1.03ZM641 675.42c9.31-31.79-10-65.37-43-75s-67.35 8.27-76.65 40 10 65.37 43 75 67.32-8.23 76.65-40Zm229.46-23.27Q870.22 680.68 887 698q19.95 20.47 45.93 21.36c25.65.86 54.4-17.31 58.87-45.07 1.39-8.7 1.17-16.41-.77-23.08q-8.85-30.9-45.71-49.31-15.21-7.65-29.79-1.49c-21.71 9.05-44.92 25.82-45.1 51.74ZM864.93 794q-17.85 5.41-24.48 5.32-72.75-1-145.27 5.1a81.61 81.61 0 0 1-18.12-.59 697.26 697.26 0 0 0-18.08-2.43c-3.83-6.18-8.25-13.3-13.3-21.46-2.11-3.47-4.1-5.41-5.9-5.81-4.69-1-5.45.31-2.34 4a61 61 0 0 1 9 14.11 481.91 481.91 0 0 0 24 46.16c33.49 56.25 108.77 73.78 158.75 29.88 23.44-20.55 33.63-48.41 45.17-76.76a54.17 54.17 0 0 1 6-11.4c4.82-6.72 3.83-7.76-3-3Q870 782.14 864.93 794Z" class="cls-2"/><path transform="translate(-113.8)" d="M550.22 479.56C575 450.35 645 448.68 679.31 462.43a22.11 22.11 0 0 1 13.39 14.47 18.5 18.5 0 0 1 .76 5.18q-.19 14.26-13.65 9.87c-44.22-14.28-82.22-13-125.67-3.6a4.53 4.53 0 0 1-5.41-3.74 5.89 5.89 0 0 1 1.49-5.05ZM919.92 467.12c13.52 1.35 39.53 5.36 48 17.49 5.46 7.89 3.56 10.73-5.77 8.43q-54.36-13.4-123.55 7.34c-7.16 2.12-11.13-.54-11.85-8-.63-6.36 1.85-12.13 7.44-17.36a17.5 17.5 0 0 1 8.38-4.33 260.38 260.38 0 0 1 77.35-3.57ZM681 559.43a36.59 36.59 0 0 0-15-10.68c-1.58-.59-2.39 0-2.44 1.67-.81 40.88-51.7 47.28-61.48 7.84-1-4.24.23-8.43 2.44-12 1.62-2.61.94-3.42-2-2.47a104.65 104.65 0 0 0-23.62 10.9 3.87 3.87 0 0 0-1.62 4.33 27 27 0 0 0 6.67 10.86Q572.58 565 569.55 554a3.2 3.2 0 0 1 1.27-3.69c31.1-23 76.4-27.14 106.87-.72 5.31 4.66 6.44 7.9 3.31 9.84ZM933.8 566.87 938 559c1-1.94.5-3.33-1.53-4.15l-13.66-5.5a2.13 2.13 0 0 0-2.88 2 41.68 41.68 0 0 1-8.12 25.52c-17.17 23.79-65.67 5-52-27q2.64-6.15-3.11-2.7a71.18 71.18 0 0 0-21.91 21.23 1.16 1.16 0 0 1-1.35.18 1.7 1.7 0 0 1-.95-2.39c23.76-46.29 80.51-33 116.93-11.45a2.37 2.37 0 0 1 1 3.51c-4.04 7.94-9.59 10.83-16.62 8.62Z" class="cls-1"/><path transform="translate(-113.8)" d="M681 559.43c-.18 2.26-1.17 3.7-3 4.37a5.9 5.9 0 0 0-3.11 2.57q-19.28 32.52-54.59 23.35c-12.71-3.29-24.88-12.35-36.42-19.88a27 27 0 0 1-6.62-10.84 3.87 3.87 0 0 1 1.62-4.33 104.65 104.65 0 0 1 23.62-10.9c2.93-1 3.61-.14 2 2.47-2.21 3.61-3.47 7.8-2.44 12 9.78 39.44 60.67 33 61.48-7.84.05-1.72.86-2.26 2.44-1.67a36.59 36.59 0 0 1 15.02 10.7ZM933.8 566.87c-4 2.12-9.37 7.3-16.18 15.46-8.61 10.37-27 14.42-40.52 10.91a104.12 104.12 0 0 1-40.62-20.15 4.15 4.15 0 0 1-1.44-2.66l-.27-2a71.18 71.18 0 0 1 21.91-21.23q5.75-3.45 3.11 2.7c-13.66 32 34.84 50.75 52 27a41.68 41.68 0 0 0 8.12-25.52 2.13 2.13 0 0 1 2.88-2l13.66 5.5c2 .82 2.57 2.21 1.53 4.15Z" class="cls-3"/><path transform="translate(-113.8)" d="m450.51 621.32-9.69 21c-2.21 4.78-3.47 4.55-3.74-.72a47.36 47.36 0 0 1 6.08-26.19 8.71 8.71 0 0 0-1.16-10.23q-17.58-18.85-21.1-42.1a1.15 1.15 0 0 1 .95-1.44l1.08-.27a2.29 2.29 0 0 1 2.75 1.4q7 18.45 16.23 30.33 16.77 21.51 33.85 42.6a2 2 0 0 1-.23 3l-1.12 1.08a.43.43 0 0 1-.68 0l-20.19-19q-1.95-1.83-3.03.54Z" class="cls-4"/><path transform="translate(-113.8)" d="M815 705.56q-13.51-5.94-29.07 5.05c-10.41 7.35-15.68 11-15.82 11.13-20.6 10.06-45.75-2.7-61.53-16.76a3.12 3.12 0 0 0-5.18 1.8l-1.08 6.45a2.52 2.52 0 0 1-3.16 2.34c-2.39-.32-4.55-1.71-6.53-4.28a645.73 645.73 0 0 1 34.48-126.66c4.06-10.59 12.26-20 24.43-20.65 10.86-.58 18.8 4.2 23.8 14.43a372.35 372.35 0 0 1 19.07 46.11A530.77 530.77 0 0 1 815 705.56Z" class="cls-5"/><path transform="translate(-113.8)" d="M1087.91 627.76a5 5 0 0 0-7.08-1l-27.13 20.6a2.72 2.72 0 0 1-4.37-2.26 11.66 11.66 0 0 1 1.71-5.68c15.19-26.27 33.35-57 57.2-73.74a3.23 3.23 0 0 1 5 1.76l3.61 13.21a7.46 7.46 0 0 1-1.94 7.66l-19.38 20.37a5.52 5.52 0 0 0-1.49 4.24c.59 6.9 2.8 14.87 6.54 23.84a.72.72 0 0 1-.27.91l-1 .58a2.94 2.94 0 0 1-4.46-.81Z" class="cls-4"/><ellipse transform="rotate(-73.7 524.238 733.838)" ry="62.34" rx="59.95" cy="657.92" cx="581.14" class="cls-5"/><path transform="translate(-113.8)" d="M870.43 652.15c.18-25.92 23.39-42.69 45.07-51.79q14.61-6.15 29.79 1.49 36.86 18.39 45.71 49.31c1.94 6.67 2.16 14.38.77 23.08-4.47 27.76-33.22 45.93-58.87 45.07q-26-.88-45.93-21.36-16.77-17.25-16.54-45.8Z" class="cls-5"/><path transform="translate(-113.8)" d="M815 705.56c-.31 8.88-3.42 15.33-9.28 19.39q-33.41 23.25-65.45 16.63c-15-3.07-30.7-12.8-44.94-20.56q-7.71-4.18-2.7-9.73c2 2.57 4.14 4 6.53 4.28a2.52 2.52 0 0 0 3.16-2.34l1.08-6.45a3.12 3.12 0 0 1 5.18-1.8c15.78 14.06 40.93 26.82 61.53 16.76.14-.09 5.41-3.78 15.82-11.13S806 701.6 815 705.56ZM659 801.35c37.1 60.13 103.54 87.76 166.37 44.85q23.53-16.1 39.58-52.25 5.13-11.82 12.48-16.94c6.81-4.74 7.8-3.7 3 3a54.17 54.17 0 0 0-6 11.4c-11.54 28.35-21.73 56.21-45.17 76.76-50 43.9-125.26 26.37-158.75-29.88a481.91 481.91 0 0 1-24-46.16 61 61 0 0 0-9-14.11c-3.11-3.65-2.35-5 2.34-4 1.8.4 3.79 2.34 5.9 5.81 4.98 8.22 9.4 15.34 13.25 21.52Z" class="cls-4"/><path transform="translate(-113.8)" d="M864.93 794q-16 36.18-39.58 52.25c-62.83 42.86-129.27 15.23-166.35-44.9 6.27.76 12.26 1.57 18.08 2.43a81.61 81.61 0 0 0 18.12.59q72.54-6.09 145.27-5.1 6.61.08 24.46-5.27Z" class="cls-3"/><path transform="translate(-113.8)" d="M593.08 926.83q31.11 27.45 40.16 33.54 65.52 43.95 145.28 38.49c57.6-4 102.32-29.57 146-65.31q-4.53 17.31-2.21 24a105.36 105.36 0 0 0-9.87 18c-4.19 10.05-7 16.23-8.34 18.48a212.59 212.59 0 0 1-55.4 61.3c-68.64 51.7-149.78 31-202.65-30q-28.8-33.19-51.29-80.14c-2.13-6.95-2.67-13.08-1.68-18.36Z" class="cls-4"/><path transform="translate(-113.8)" d="M594.71 945.18q22.5 46.92 51.29 80.14c52.87 61 134 81.72 202.65 30a212.59 212.59 0 0 0 55.4-61.3c1.35-2.25 4.15-8.43 8.34-18.48a105.36 105.36 0 0 1 9.87-18l1.44 62.52c1-.13.77.14-.76.81a1.37 1.37 0 0 0-.9 1.45l3.92 88.79c-3.34 4.92-4.69 9.69-4 14.43a92 92 0 0 1-11.19 13.46q-57.07 57.27-114.81 114-17.44 17.11-21.32 33.18c-1.71-5.28-4.82-1.26-9.33 11.94-4.46 6.18-7.16 9.11-8.2 8.7-7.71-6-12.89-12.57-15.51-19.83a3.55 3.55 0 0 0-1.39-2c-1.67-1-2.53-.5-2.62 1.44l-.18 5.23c-1.4-22.31-21.95-41.74-37.19-56.75-48.9-48.19-98.89-96.1-144.64-147.26a1.26 1.26 0 0 1 0-1.76l.85-.85c.09-.09.18-.09.23 0l33.34 30.3a1.62 1.62 0 0 0 2.7-1.18l3-101.59Z" class="cls-2"/><path transform="translate(-113.8)" d="m595.7 1012.57-3 101.59a1.62 1.62 0 0 1-2.7 1.18L556.71 1085c-.05-.09-.14-.09-.23 0l-.85.85a1.26 1.26 0 0 0 0 1.76c45.75 51.16 95.74 99.07 144.64 147.26 15.24 15 35.79 34.44 37.19 56.75 2.62 29.7-1.53 94.07-31.64 111.42a11 11 0 0 1-11.68-.4q-65.91-44-129.58-102-35.1-31.85-43.19-42.73c-22.8-30.34-23.07-87.94-19.42-121.43 3.6-37.19 19.6-59.5 47.42-84q20.97-18.62 46.33-39.91ZM923.7 1020.09c2.21 2 4.2 3.88 5.95 5.55Q950.28 1045 970 1065.3q30.69 31.44 35.56 75.28a348.8 348.8 0 0 1-.72 81.13c-4.64 36.65-31.46 61.89-58.19 84.47q-41.85 35.43-121.43 96.87c-19.34 14.92-33.85-15-38.18-29.17q-12.64-41.1-12.4-87.8 3.86-16 21.32-33.18 57.75-56.65 114.81-114a92 92 0 0 0 11.23-13.33l24.7-31.24a.25.25 0 0 0-.09-.36l-.95-.63a1.08 1.08 0 0 0-1.62.27 73.92 73.92 0 0 1-18 17.53l-4.04-88.79a1.37 1.37 0 0 1 .9-1.45c1.57-.67 1.84-.9.8-.81Z" class="cls-3"/><path transform="translate(-113.8)" d="M922 1125.57c-.68-4.74.67-9.51 4-14.43a73.92 73.92 0 0 0 18-17.53 1.08 1.08 0 0 1 1.62-.27l.95.63a.25.25 0 0 1 .09.36Z" style="fill:#ef8988"/><path transform="translate(-113.8)" d="M501.9 1136.48c-3.65 33.49-3.38 91.09 19.42 121.43q8.11 10.88 43.19 42.73 63.69 57.94 129.58 102a11 11 0 0 0 11.68.4c30.11-17.35 34.26-81.72 31.64-111.42l.18-5.23c.09-1.94.95-2.39 2.62-1.44a3.55 3.55 0 0 1 1.39 2c2.62 7.26 7.8 13.84 15.51 19.83q-6.36 29.68-12 61.62c-2.44 13.66-5.68 23.75-9.74 30.2q-14.67 23.39-41.65 9.33-40.5-21.09-87.31-53.82-38.53-26.91-80.18-55c-18.62-12.53-30.2-27.45-33.27-50.26a292 292 0 0 1-2.34-51.74q1.49-32.54 4.42-65c.49-2.39 1.84-3.47 4.05-3.16a2.72 2.72 0 0 1 2.62 2.89Z" class="cls-4"/><path transform="translate(-113.8)" d="M495.05 1132.06q-2.91 32.45-4.42 65a292 292 0 0 0 2.37 51.74c3.07 22.81 14.65 37.73 33.27 50.26q41.64 28.07 80.18 55 46.86 32.73 87.31 53.82 27 14.06 41.65-9.33c4.06-6.45 7.3-16.54 9.74-30.2q5.61-31.92 12-61.62c1 .41 3.74-2.52 8.2-8.7a380.36 380.36 0 0 0 8.07 72c4 18.66 17.76 46 40.21 43.23 13.61-1.67 29.34-16 41-24.75q10.35-7.71 21.69-15a248.38 248.38 0 0 0 39.21-30.74 46.2 46.2 0 0 1 8.34-6.53 10.89 10.89 0 0 1 4-1.45 3 3 0 0 0 2.84-2.84 1.39 1.39 0 0 1 1.31-1.21 3 3 0 0 0 1.94-.9 2.32 2.32 0 0 0 .63-1.49 1.93 1.93 0 0 1 1.12-1.85c8.25-4.15 16.64-8.2 23.8-14.29 21.41-18.3 45.57-36.6 51.52-64.68 2.08-9.69 5-20.06 4.78-29.89q-.74-38.54-3.47-76.89a19.85 19.85 0 0 1 6.49 1.21A1633.65 1633.65 0 0 1 1265 1264q28.13 17.1 57.6 45.48 50.78 81.33 50.4 179.71a4.43 4.43 0 0 1-4.42 4.42l-1249.51.13a5.29 5.29 0 0 1-5.28-5.54c1.54-34.94 6.9-64.73 17.54-99.57q6.37-20.63 10.96-38.63 7.78-10.27 22.13-34.57c13.57-22.94 40.35-38 67.25-55q18.2-11.43 37-21.64 108.24-58.7 221.72-106.78c.78-.4 2.36-.36 4.66.05Z" style="fill:#eb686d"/><path transform="translate(-113.8)" d="M1012.32 1140.76q2.77 38.33 3.47 76.89c.18 9.83-2.7 20.2-4.78 29.89-6 28.08-30.11 46.38-51.52 64.68-7.16 6.09-15.55 10.14-23.8 14.29a1.93 1.93 0 0 0-1.12 1.85 2.32 2.32 0 0 1-.63 1.49 3 3 0 0 1-1.94.9 1.39 1.39 0 0 0-1.31 1.21 3 3 0 0 1-2.84 2.84 10.89 10.89 0 0 0-4 1.45 46.2 46.2 0 0 0-8.34 6.53 248.38 248.38 0 0 1-39.21 30.74q-11.37 7.31-21.69 15c-11.67 8.7-27.4 23.08-41 24.75-22.45 2.79-36.24-24.57-40.21-43.23a380.36 380.36 0 0 1-8.07-72c4.51-13.2 7.62-17.22 9.33-11.94q-.2 46.71 12.4 87.8c4.33 14.16 18.84 44.09 38.18 29.17q79.57-61.47 121.43-96.87c26.73-22.58 53.55-47.82 58.19-84.47a348.8 348.8 0 0 0 .72-81.13 8.81 8.81 0 0 1 .31-2.84c.55-1.76 1.58-2.08 3.07-1a10.65 10.65 0 0 1 3.36 4Z" class="cls-4"/></svg>