<svg class="icon" viewBox="0 0 3674 1024" xmlns="http://www.w3.org/2000/svg" width="918.5" height="256"><path d="m596.33 42.165 382.494 382.494c48.188 48.188 48.188 123.482 0 171.67L596.329 981.835c-48.188 48.189-123.482 48.189-171.67 0L42.165 596.33c-48.189-48.188-48.189-123.482 0-171.67L427.67 42.165c45.176-45.177 123.482-45.177 168.658 0z" fill="#096F75"/><path d="m1138.447 42.165 382.494 382.494c48.188 48.188 48.188 123.482 0 171.67l-382.494 385.506c-48.188 48.189-123.482 48.189-171.67 0L584.281 596.33c-48.188-48.188-48.188-123.482 0-171.67L969.788 42.165c45.177-45.177 123.483-45.177 168.66 0z" fill="#159DA6"/><path d="m783.059 228.894 198.776 198.777c48.189 48.188 48.189 123.482 0 171.67L783.06 795.106 584.282 596.329c-48.188-48.188-48.188-123.482 0-171.67L783.06 228.894z" fill="#549AA5"/></svg>