<svg class="icon" viewBox="0 0 1024 1024" xmlns="http://www.w3.org/2000/svg" width="256" height="256"><path d="M632.96 128h263.136a28.48 28.48 0 0 1 22.816 45.504l-550.56 737.344A42.72 42.72 0 0 1 334.144 928H71.008a28.48 28.48 0 0 1-22.816-45.504l550.56-737.344A42.72 42.72 0 0 1 632.96 128zm382.336 466.88L794.368 903.328a42.661 42.661 0 0 1-34.72 17.856H525.504a28.48 28.48 0 0 1-22.816-45.536l230.496-308.672a42.72 42.72 0 0 1 34.24-17.152H992.16a28.48 28.48 0 0 1 23.136 45.056zM486.72 173.664 296.64 424.256a42.72 42.72 0 0 1-34.016 16.928H29.92a28.48 28.48 0 0 1-22.304-46.208l199.328-250.848A42.72 42.72 0 0 1 240.384 128H464a28.48 28.48 0 0 1 22.688 45.664z" fill="#d4237a"/></svg>